<?xml version="1.0" standalone="no"?>
<!DOCTYPE svg PUBLIC "-//W3C//DTD SVG 20010904//EN"
 "http://www.w3.org/TR/2001/REC-SVG-20010904/DTD/svg10.dtd">
<svg version="1.0" xmlns="http://www.w3.org/2000/svg"
 width="1280.000000pt" height="800.000000pt" viewBox="0 0 1280.000000 800.000000"
 preserveAspectRatio="xMidYMid meet">

<g transform="translate(0.000000,800.000000) scale(0.100000,-0.100000)"
fill="#FFFFFF" stroke="none">
<path d="M5925 6749 c-568 -30 -1038 -88 -1543 -190 -985 -200 -1734 -431
-2339 -724 -604 -292 -1082 -683 -1381 -1131 -148 -221 -216 -375 -263 -594
-30 -141 -33 -431 -6 -559 57 -266 146 -432 376 -706 391 -465 1007 -878 1560
-1046 102 -31 150 -36 184 -17 12 6 135 120 272 252 644 620 944 889 1606
1437 791 655 1371 1079 1979 1446 176 106 893 512 1250 708 369 203 981 509
1079 540 21 6 20 3 -10 -22 -67 -58 -198 -152 -414 -300 -561 -382 -1402
-1001 -1925 -1417 -481 -383 -668 -547 -1155 -1011 -503 -479 -1141 -1131
-1370 -1400 -171 -202 -377 -487 -361 -502 18 -18 526 -121 776 -157 186 -27
489 -60 494 -54 2 1 77 104 166 228 396 546 1328 1774 1530 2015 254 303 818
902 1400 1488 529 534 809 791 1100 1011 154 116 167 125 155 105 -15 -25
-303 -396 -710 -914 -722 -919 -1144 -1480 -1376 -1830 -350 -527 -810 -1229
-901 -1375 -350 -563 -368 -593 -414 -718 -13 -34 -24 -65 -24 -68 0 -10 1022
3 1190 15 698 50 1278 126 1865 245 957 194 1537 371 2165 661 391 180 663
367 945 650 339 339 496 607 576 985 30 138 33 428 6 560 -73 366 -269 676
-612 971 -709 610 -1615 1028 -2655 1223 -385 73 -725 112 -1500 173 -304 23
-392 26 -945 28 -335 2 -682 -1 -770 -6z m1735 -283 c379 -27 914 -87 949
-106 11 -6 3 -15 -30 -35 -60 -39 -119 -64 -294 -125 -653 -228 -1748 -697
-2835 -1213 -773 -366 -2262 -1107 -2540 -1263 -237 -133 -565 -299 -668 -339
-114 -44 -241 -75 -307 -75 -174 0 -380 121 -495 290 -89 131 -166 322 -190
472 -18 110 -8 312 20 408 29 101 134 316 205 420 287 422 728 728 1383 959
636 224 1435 418 2247 545 220 35 475 54 975 76 314 13 1319 4 1580 -14z
m1840 -347 c259 -78 564 -205 802 -335 424 -231 757 -492 906 -707 68 -99 146
-262 173 -363 75 -279 -4 -633 -209 -944 -133 -200 -515 -524 -879 -744 -330
-200 -634 -331 -1193 -514 -556 -182 -1105 -301 -1346 -290 -164 7 -237 52
-270 166 -23 79 -14 180 29 322 64 209 173 429 787 1595 452 857 592 1115 761
1398 108 179 288 457 298 457 3 0 67 -18 141 -41z"/>
</g>
</svg>
