<?xml version="1.0" encoding="UTF-8" standalone="no" ?>
<!DOCTYPE svg PUBLIC "-//W3C//DTD SVG 1.1//EN" "http://www.w3.org/Graphics/SVG/1.1/DTD/svg11.dtd">
<svg xmlns="http://www.w3.org/2000/svg" xmlns:xlink="http://www.w3.org/1999/xlink" version="1.1" width="1080" height="1080" viewBox="0 0 1080 1080" xml:space="preserve">
<desc>Created with Fabric.js 5.2.4</desc>
<defs>
</defs>
<g transform="matrix(1 0 0 1 540 540)" id="c3d60b90-85ca-4bc5-b362-54cc8ae41388"  >
<rect style="stroke: none; stroke-width: 1; stroke-dasharray: none; stroke-linecap: butt; stroke-dashoffset: 0; stroke-linejoin: miter; stroke-miterlimit: 4; fill: rgb(255,255,255); fill-rule: nonzero; opacity: 1; visibility: hidden;" vector-effect="non-scaling-stroke"  x="-540" y="-540" rx="0" ry="0" width="1080" height="1080" />
</g>
<g transform="matrix(1 0 0 1 540 540)" id="eb959e8f-f873-474a-8065-18130141c433"  >
</g>
<g transform="matrix(1 0 0 1 540 540)"  >
<g style="" vector-effect="non-scaling-stroke"   >
		<g transform="matrix(0.13 0 0 -0.13 -12.21 -8.75)"  >
<path style="stroke: none; stroke-width: 1; stroke-dasharray: none; stroke-linecap: butt; stroke-dashoffset: 0; stroke-linejoin: miter; stroke-miterlimit: 4; fill: rgb(255,255,255); fill-rule: nonzero; opacity: 1;" vector-effect="non-scaling-stroke"  transform=" translate(-4044.88, -2744.01)" d="M 3700 5363 C 3066 5319 2525 5204 2015 5003 C 1333 4734 771 4313 456 3835 C 367 3701 316 3609 333 3615 C 367 3626 691 3697 904 3740 C 1807 3922 2685 4032 3426 4056 C 3664 4064 3713 4055 3786 3988 C 3840 3938 3859 3882 3869 3736 C 3874 3666 3849 561 3840 138 C 3840 121 3856 120 4040 120 L 4240 120 L 4240 373 C 4240 511 4233 1282 4224 2085 C 4215 2888 4211 3606 4214 3680 C 4223 3901 4250 3969 4351 4025 L 4405 4055 L 4625 4053 C 5372 4047 6634 3876 7618 3647 C 7696 3628 7760 3615 7760 3617 C 7760 3626 7675 3767 7627 3840 C 7448 4110 7175 4376 6860 4589 C 6208 5030 5374 5295 4430 5360 C 4299 5369 3813 5371 3700 5363 z" stroke-linecap="round" />
</g>
		<g transform="matrix(0.13 0 0 -0.13 -314.87 109.08)"  >
<path style="stroke: none; stroke-width: 1; stroke-dasharray: none; stroke-linecap: butt; stroke-dashoffset: 0; stroke-linejoin: miter; stroke-miterlimit: 4; fill: rgb(255,255,255); fill-rule: nonzero; opacity: 1;" vector-effect="non-scaling-stroke"  transform=" translate(-1722.35, -1885.32)" d="M 2385 3489 C 1660 3441 1105 3368 445 3234 C 271 3198 171 3173 163 3164 C 124 3113 97 2741 119 2550 C 227 1614 1028 809 2261 397 C 2443 336 2757 253 2767 263 C 2783 279 2998 1230 3100 1735 C 3173 2093 3256 2550 3300 2825 C 3357 3177 3343 3318 3246 3408 C 3133 3512 2967 3528 2385 3489 z" stroke-linecap="round" />
</g>
		<g transform="matrix(0.13 0 0 -0.13 304.28 109.23)"  >
<path style="stroke: none; stroke-width: 1; stroke-dasharray: none; stroke-linecap: butt; stroke-dashoffset: 0; stroke-linejoin: miter; stroke-miterlimit: 4; fill: rgb(255,255,255); fill-rule: nonzero; opacity: 1;" vector-effect="non-scaling-stroke"  transform=" translate(-6365.92, -1884.17)" d="M 5030 3495 C 4900 3468 4826 3420 4784 3333 C 4756 3277 4755 3271 4756 3125 C 4757 2992 4764 2939 4813 2650 C 4910 2085 5030 1489 5170 875 C 5289 354 5313 260 5327 260 C 5334 260 5408 278 5492 299 C 6862 653 7801 1481 7954 2470 C 7987 2683 7983 2906 7942 3094 L 7925 3174 L 7770 3207 C 7213 3328 6645 3413 6090 3459 C 5495 3509 5156 3521 5030 3495 z" stroke-linecap="round" />
</g>
</g>
</g>
<g transform="matrix(1 0 0 1 522.25 995.02)" style="" id="817ef7a8-8224-4087-a3c0-fb456b1232e2">
    <text xml:space="preserve" font-family="Arial" font-size="150" font-style="normal" font-weight="700" style="stroke: none; stroke-width: 1; stroke-dasharray: none; stroke-linecap: butt; stroke-dashoffset: 0; stroke-linejoin: miter; stroke-miterlimit: 4; fill: rgb(255,255,255); fill-rule: nonzero; opacity: 1; white-space: pre;">
        <tspan x="-200" y="100">T</tspan>
        <tspan x="-50" y="100">C</tspan>
        <tspan x="120" y="100">S</tspan>
    </text>
</g>
</svg>